<?xml version="1.0"?>
<svg xmlns="http://www.w3.org/2000/svg" viewBox="0 0 512 512" width="512" height="512"><g id="Outline"><path d="M448,80H360V96h88a32.036,32.036,0,0,1,32,32v28.261A47.8,47.8,0,0,0,448,144H424V128a16.019,16.019,0,0,0-16-16H376a16.019,16.019,0,0,0-16,16v16H152V128a16.019,16.019,0,0,0-16-16H104a16.019,16.019,0,0,0-16,16v16H64a47.8,47.8,0,0,0-32,12.261V128A32.092,32.092,0,0,1,57.544,96.65L54.335,80.975A48.147,48.147,0,0,0,16,128V448a48.053,48.053,0,0,0,48,48H448a48.053,48.053,0,0,0,48-48V423.667H480V448a32.036,32.036,0,0,1-32,32H64a32.036,32.036,0,0,1-32-32V256a32.036,32.036,0,0,1,32-32H448a32.036,32.036,0,0,1,32,32V405.667h16V128A48.053,48.053,0,0,0,448,80Zm-72,48h32l.01,48H376Zm-272,0h32l.01,48H104Zm376,92.261A47.8,47.8,0,0,0,448,208H64a47.8,47.8,0,0,0-32,12.261V192a32.036,32.036,0,0,1,32-32H88v16a16.019,16.019,0,0,0,16,16h32a16.019,16.019,0,0,0,16-16V160H360v16a16.019,16.019,0,0,0,16,16h32a16.019,16.019,0,0,0,16-16V160h24a32.036,32.036,0,0,1,32,32ZM304,128h32a8,8,0,0,0,8-8V48a32.036,32.036,0,0,0-32-32H200a32.036,32.036,0,0,0-32,32V80H73.5V96H168v24a8,8,0,0,0,8,8h32a8,8,0,0,0,8-8V96h80v24A8,8,0,0,0,304,128ZM208,48a8,8,0,0,0-8,8v56H184V48a16.019,16.019,0,0,1,16-16H312a16.019,16.019,0,0,1,16,16v64H312V56a8,8,0,0,0-8-8Zm8,32V64h80V80Zm16,344h48a8,8,0,0,0,8-8V376h40a8,8,0,0,0,8-8V320a8,8,0,0,0-8-8H288V272a8,8,0,0,0-8-8H232a8,8,0,0,0-8,8v40H184a8,8,0,0,0-8,8v48a8,8,0,0,0,8,8h40v40A8,8,0,0,0,232,424Zm-40-64V328h40a8,8,0,0,0,8-8V280h32v40a8,8,0,0,0,8,8h40v32H280a8,8,0,0,0-8,8v40H240V368a8,8,0,0,0-8-8ZM72,280H56V264H72ZM56,296H72V408H56Z"/></g></svg>
